<mxfile host="app.diagrams.net" agent="Mozilla/5.0 (Macintosh; Intel Mac OS X 10.15; rv:138.0) Gecko/20100101 Firefox/138.0" version="27.0.9">
  <diagram name="Seite-1" id="SihNaje8-9wR3qkRNZR8">
    <mxGraphModel dx="-678" dy="1414" grid="1" gridSize="10" guides="1" tooltips="1" connect="1" arrows="1" fold="1" page="0" pageScale="1" pageWidth="827" pageHeight="1169" math="0" shadow="0">
      <root>
        <mxCell id="0" />
        <mxCell id="1" parent="0" />
        <mxCell id="0sXUpPCCLZXKDz9Lb9Dr-121" value="" style="whiteSpace=wrap;html=1;" vertex="1" parent="1">
          <mxGeometry x="1249.94" y="-300" width="240" height="160" as="geometry" />
        </mxCell>
        <mxCell id="0sXUpPCCLZXKDz9Lb9Dr-122" value="" style="whiteSpace=wrap;html=1;" vertex="1" parent="1">
          <mxGeometry x="1349.94" y="-320" width="40" height="30" as="geometry" />
        </mxCell>
        <mxCell id="0sXUpPCCLZXKDz9Lb9Dr-123" value="" style="whiteSpace=wrap;html=1;" vertex="1" parent="1">
          <mxGeometry x="1329.94" y="-380" width="80" height="10" as="geometry" />
        </mxCell>
        <mxCell id="0sXUpPCCLZXKDz9Lb9Dr-124" value="" style="edgeStyle=none;orthogonalLoop=1;jettySize=auto;html=1;rounded=0;" edge="1" parent="1" target="0sXUpPCCLZXKDz9Lb9Dr-125">
          <mxGeometry width="80" relative="1" as="geometry">
            <mxPoint x="1409.94" y="-390" as="sourcePoint" />
            <mxPoint x="1409.94" y="-420" as="targetPoint" />
            <Array as="points" />
          </mxGeometry>
        </mxCell>
        <mxCell id="0sXUpPCCLZXKDz9Lb9Dr-125" value="" style="whiteSpace=wrap;html=1;" vertex="1" parent="1">
          <mxGeometry x="1319.94" y="-400" width="100" height="80" as="geometry" />
        </mxCell>
        <mxCell id="0sXUpPCCLZXKDz9Lb9Dr-126" value="" style="edgeStyle=none;orthogonalLoop=1;jettySize=auto;html=1;rounded=0;shape=link;" edge="1" parent="1">
          <mxGeometry width="80" relative="1" as="geometry">
            <mxPoint x="1329.94" y="-400" as="sourcePoint" />
            <mxPoint x="1329.94" y="-420" as="targetPoint" />
            <Array as="points" />
          </mxGeometry>
        </mxCell>
        <mxCell id="0sXUpPCCLZXKDz9Lb9Dr-127" value="" style="edgeStyle=none;orthogonalLoop=1;jettySize=auto;html=1;rounded=0;shape=link;" edge="1" parent="1">
          <mxGeometry width="80" relative="1" as="geometry">
            <mxPoint x="1409.94" y="-400" as="sourcePoint" />
            <mxPoint x="1409.94" y="-420" as="targetPoint" />
            <Array as="points" />
          </mxGeometry>
        </mxCell>
        <mxCell id="0sXUpPCCLZXKDz9Lb9Dr-128" value="" style="whiteSpace=wrap;html=1;" vertex="1" parent="1">
          <mxGeometry x="1329.94" y="-390" width="80" height="40" as="geometry" />
        </mxCell>
        <mxCell id="0sXUpPCCLZXKDz9Lb9Dr-129" value="" style="shape=image;imageAspect=0;aspect=fixed;verticalLabelPosition=bottom;verticalAlign=top;image=https://www.pngall.com/wp-content/uploads/12/Gears-PNG-Image-HD.png;" vertex="1" parent="1">
          <mxGeometry x="1427.44" y="-195" width="52.07" height="46.46" as="geometry" />
        </mxCell>
        <mxCell id="0sXUpPCCLZXKDz9Lb9Dr-130" value="&lt;font size=&quot;1&quot;&gt;&lt;b style=&quot;font-size: 16px;&quot;&gt;Training&lt;/b&gt;&lt;/font&gt;" style="whiteSpace=wrap;html=1;fontFamily=Helvetica;" vertex="1" parent="1">
          <mxGeometry x="1259.5100000000002" y="-280" width="220" height="30" as="geometry" />
        </mxCell>
        <mxCell id="0sXUpPCCLZXKDz9Lb9Dr-131" value="&lt;font style=&quot;font-size: 14px;&quot; face=&quot;Helvetica&quot;&gt;&lt;b style=&quot;&quot;&gt;Aufbau der Geradengleichung:&lt;/b&gt;&lt;br&gt;Geschwindigkeit = &lt;br&gt;m * Körpergröße + c&lt;/font&gt;&lt;div&gt;&lt;br&gt;&lt;/div&gt;" style="text;html=1;align=left;verticalAlign=top;whiteSpace=wrap;rounded=0;" vertex="1" parent="1">
          <mxGeometry x="1259.5100000000002" y="-250" width="220.43" height="85" as="geometry" />
        </mxCell>
        <mxCell id="0sXUpPCCLZXKDz9Lb9Dr-132" value="" style="edgeStyle=none;orthogonalLoop=1;jettySize=auto;html=1;rounded=0;entryX=0.5;entryY=1;entryDx=0;entryDy=0;exitX=0.501;exitY=0.101;exitDx=0;exitDy=0;exitPerimeter=0;" edge="1" parent="1" source="0sXUpPCCLZXKDz9Lb9Dr-134">
          <mxGeometry width="80" relative="1" as="geometry">
            <mxPoint x="1369.94" y="-106" as="sourcePoint" />
            <mxPoint x="1369.94" y="-140" as="targetPoint" />
            <Array as="points" />
          </mxGeometry>
        </mxCell>
        <mxCell id="0sXUpPCCLZXKDz9Lb9Dr-133" value="" style="shape=table;startSize=0;container=1;collapsible=0;childLayout=tableLayout;fontSize=14;align=left;fontStyle=0" vertex="1" parent="1">
          <mxGeometry x="1220" y="-100" width="299.8700000000001" height="115" as="geometry" />
        </mxCell>
        <mxCell id="0sXUpPCCLZXKDz9Lb9Dr-134" value="" style="shape=tableRow;horizontal=0;startSize=0;swimlaneHead=0;swimlaneBody=0;strokeColor=inherit;top=0;left=0;bottom=0;right=0;collapsible=0;dropTarget=0;fillColor=none;points=[[0,0.5],[1,0.5]];portConstraint=eastwest;fontSize=14;fontStyle=1;align=left;" vertex="1" parent="0sXUpPCCLZXKDz9Lb9Dr-133">
          <mxGeometry width="299.8700000000001" height="40" as="geometry" />
        </mxCell>
        <mxCell id="0sXUpPCCLZXKDz9Lb9Dr-135" value="Gemessene Daten" style="shape=partialRectangle;html=1;whiteSpace=wrap;connectable=0;strokeColor=inherit;overflow=hidden;fillColor=none;top=0;left=0;bottom=0;right=0;pointerEvents=1;fontSize=14;align=left;fontStyle=1" vertex="1" parent="0sXUpPCCLZXKDz9Lb9Dr-134">
          <mxGeometry width="100" height="40" as="geometry">
            <mxRectangle width="100" height="40" as="alternateBounds" />
          </mxGeometry>
        </mxCell>
        <mxCell id="0sXUpPCCLZXKDz9Lb9Dr-136" value="Größe (cm)" style="shape=partialRectangle;html=1;whiteSpace=wrap;connectable=0;strokeColor=inherit;overflow=hidden;fillColor=none;top=0;left=0;bottom=0;right=0;pointerEvents=1;fontSize=14;align=left;fontStyle=1" vertex="1" parent="0sXUpPCCLZXKDz9Lb9Dr-134">
          <mxGeometry x="100" width="60" height="40" as="geometry">
            <mxRectangle width="60" height="40" as="alternateBounds" />
          </mxGeometry>
        </mxCell>
        <mxCell id="0sXUpPCCLZXKDz9Lb9Dr-137" value="Geschwindigkeit&lt;div style=&quot;font-size: 14px;&quot;&gt;(km/h)&lt;/div&gt;" style="shape=partialRectangle;html=1;whiteSpace=wrap;connectable=0;strokeColor=inherit;overflow=hidden;fillColor=none;top=0;left=0;bottom=0;right=0;pointerEvents=1;fontSize=14;align=left;fontStyle=1" vertex="1" parent="0sXUpPCCLZXKDz9Lb9Dr-134">
          <mxGeometry x="160" width="140" height="40" as="geometry">
            <mxRectangle width="140" height="40" as="alternateBounds" />
          </mxGeometry>
        </mxCell>
        <mxCell id="0sXUpPCCLZXKDz9Lb9Dr-138" value="" style="shape=tableRow;horizontal=0;startSize=0;swimlaneHead=0;swimlaneBody=0;strokeColor=inherit;top=0;left=0;bottom=0;right=0;collapsible=0;dropTarget=0;fillColor=none;points=[[0,0.5],[1,0.5]];portConstraint=eastwest;fontSize=14;align=left;fontStyle=0" vertex="1" parent="0sXUpPCCLZXKDz9Lb9Dr-133">
          <mxGeometry y="40" width="299.8700000000001" height="25" as="geometry" />
        </mxCell>
        <mxCell id="0sXUpPCCLZXKDz9Lb9Dr-139" value="Hans" style="shape=partialRectangle;html=1;whiteSpace=wrap;connectable=0;strokeColor=inherit;overflow=hidden;fillColor=none;top=0;left=0;bottom=0;right=0;pointerEvents=1;fontSize=14;align=left;fontStyle=0" vertex="1" parent="0sXUpPCCLZXKDz9Lb9Dr-138">
          <mxGeometry width="100" height="25" as="geometry">
            <mxRectangle width="100" height="25" as="alternateBounds" />
          </mxGeometry>
        </mxCell>
        <mxCell id="0sXUpPCCLZXKDz9Lb9Dr-140" value="128,4" style="shape=partialRectangle;html=1;whiteSpace=wrap;connectable=0;strokeColor=inherit;overflow=hidden;fillColor=none;top=0;left=0;bottom=0;right=0;pointerEvents=1;fontSize=14;align=left;fontStyle=0" vertex="1" parent="0sXUpPCCLZXKDz9Lb9Dr-138">
          <mxGeometry x="100" width="60" height="25" as="geometry">
            <mxRectangle width="60" height="25" as="alternateBounds" />
          </mxGeometry>
        </mxCell>
        <mxCell id="0sXUpPCCLZXKDz9Lb9Dr-141" value="13,7" style="shape=partialRectangle;html=1;whiteSpace=wrap;connectable=0;strokeColor=inherit;overflow=hidden;fillColor=none;top=0;left=0;bottom=0;right=0;pointerEvents=1;fontSize=14;align=left;fontStyle=0" vertex="1" parent="0sXUpPCCLZXKDz9Lb9Dr-138">
          <mxGeometry x="160" width="140" height="25" as="geometry">
            <mxRectangle width="140" height="25" as="alternateBounds" />
          </mxGeometry>
        </mxCell>
        <mxCell id="0sXUpPCCLZXKDz9Lb9Dr-142" value="" style="shape=tableRow;horizontal=0;startSize=0;swimlaneHead=0;swimlaneBody=0;strokeColor=inherit;top=0;left=0;bottom=0;right=0;collapsible=0;dropTarget=0;fillColor=none;points=[[0,0.5],[1,0.5]];portConstraint=eastwest;fontSize=14;align=left;fontStyle=0" vertex="1" parent="0sXUpPCCLZXKDz9Lb9Dr-133">
          <mxGeometry y="65" width="299.8700000000001" height="25" as="geometry" />
        </mxCell>
        <mxCell id="0sXUpPCCLZXKDz9Lb9Dr-143" value="Laura" style="shape=partialRectangle;html=1;whiteSpace=wrap;connectable=0;strokeColor=inherit;overflow=hidden;fillColor=none;top=0;left=0;bottom=0;right=0;pointerEvents=1;fontSize=14;align=left;fontStyle=0" vertex="1" parent="0sXUpPCCLZXKDz9Lb9Dr-142">
          <mxGeometry width="100" height="25" as="geometry">
            <mxRectangle width="100" height="25" as="alternateBounds" />
          </mxGeometry>
        </mxCell>
        <mxCell id="0sXUpPCCLZXKDz9Lb9Dr-144" value="139,5" style="shape=partialRectangle;html=1;whiteSpace=wrap;connectable=0;strokeColor=inherit;overflow=hidden;fillColor=none;top=0;left=0;bottom=0;right=0;pointerEvents=1;fontSize=14;align=left;fontStyle=0" vertex="1" parent="0sXUpPCCLZXKDz9Lb9Dr-142">
          <mxGeometry x="100" width="60" height="25" as="geometry">
            <mxRectangle width="60" height="25" as="alternateBounds" />
          </mxGeometry>
        </mxCell>
        <mxCell id="0sXUpPCCLZXKDz9Lb9Dr-145" value="21,0" style="shape=partialRectangle;html=1;whiteSpace=wrap;connectable=0;strokeColor=inherit;overflow=hidden;fillColor=none;top=0;left=0;bottom=0;right=0;pointerEvents=1;fontSize=14;align=left;fontStyle=0" vertex="1" parent="0sXUpPCCLZXKDz9Lb9Dr-142">
          <mxGeometry x="160" width="140" height="25" as="geometry">
            <mxRectangle width="140" height="25" as="alternateBounds" />
          </mxGeometry>
        </mxCell>
        <mxCell id="0sXUpPCCLZXKDz9Lb9Dr-146" style="shape=tableRow;horizontal=0;startSize=0;swimlaneHead=0;swimlaneBody=0;strokeColor=inherit;top=0;left=0;bottom=0;right=0;collapsible=0;dropTarget=0;fillColor=none;points=[[0,0.5],[1,0.5]];portConstraint=eastwest;fontSize=14;align=left;fontStyle=0" vertex="1" parent="0sXUpPCCLZXKDz9Lb9Dr-133">
          <mxGeometry y="90" width="299.8700000000001" height="25" as="geometry" />
        </mxCell>
        <mxCell id="0sXUpPCCLZXKDz9Lb9Dr-147" value="..." style="shape=partialRectangle;html=1;whiteSpace=wrap;connectable=0;strokeColor=inherit;overflow=hidden;fillColor=none;top=0;left=0;bottom=0;right=0;pointerEvents=1;fontSize=14;align=left;fontStyle=0" vertex="1" parent="0sXUpPCCLZXKDz9Lb9Dr-146">
          <mxGeometry width="100" height="25" as="geometry">
            <mxRectangle width="100" height="25" as="alternateBounds" />
          </mxGeometry>
        </mxCell>
        <mxCell id="0sXUpPCCLZXKDz9Lb9Dr-148" value="...." style="shape=partialRectangle;html=1;whiteSpace=wrap;connectable=0;strokeColor=inherit;overflow=hidden;fillColor=none;top=0;left=0;bottom=0;right=0;pointerEvents=1;fontSize=14;align=left;fontStyle=0" vertex="1" parent="0sXUpPCCLZXKDz9Lb9Dr-146">
          <mxGeometry x="100" width="60" height="25" as="geometry">
            <mxRectangle width="60" height="25" as="alternateBounds" />
          </mxGeometry>
        </mxCell>
        <mxCell id="0sXUpPCCLZXKDz9Lb9Dr-149" value="..." style="shape=partialRectangle;html=1;whiteSpace=wrap;connectable=0;strokeColor=inherit;overflow=hidden;fillColor=none;top=0;left=0;bottom=0;right=0;pointerEvents=1;fontSize=14;align=left;fontStyle=0" vertex="1" parent="0sXUpPCCLZXKDz9Lb9Dr-146">
          <mxGeometry x="160" width="140" height="25" as="geometry">
            <mxRectangle width="140" height="25" as="alternateBounds" />
          </mxGeometry>
        </mxCell>
      </root>
    </mxGraphModel>
  </diagram>
</mxfile>
